<svg width="74" xmlns="http://www.w3.org/2000/svg" viewBox="0 0 648 326" fill="none">
    <path fill-rule="evenodd" clip-rule="evenodd" d="M552 192C605.019 192 648 149.019 648 96C648 42.9807 605.019 0 552 0C498.981 0 456 42.9807 456 96C456 149.019 498.981 192 552 192ZM552 144C578.51 144 600 122.51 600 96C600 69.4903 578.51 48 552 48C525.49 48 504 69.4903 504 96C504 122.51 525.49 144 552 144Z" fill="url(#paint0_linear_107_944)"></path>
    <path class="fill-black duration-500" fill-rule="evenodd" clip-rule="evenodd" d="M110.968 268C110.328 264.089 110 260.076 110 256C110 220.654 134.654 190 174 190C213.346 190 238 220.654 238 256C238 260.076 237.672 264.089 237.032 268H214H204.037H143.964C148.176 280.423 158.934 290 174.001 290C182.764 290 190.07 286.76 195.478 281.605L229.168 290.632C218.697 309.212 199.414 322 174.001 322C139.191 322 115.881 298.008 110.969 268H110.968ZM174 222C189.067 222 199.825 231.577 204.037 244H143.963C148.175 231.577 158.933 222 174 222ZM456 256C456 292.451 426.451 322 390 322C353.549 322 324 292.451 324 256C324 219.549 353.549 190 390 190C426.451 190 456 219.549 456 256ZM423 256C423 274.225 408.225 289 390 289C371.775 289 357 274.225 357 256C357 237.775 371.775 223 390 223C408.225 223 423 237.775 423 256ZM246 192H278V200.562C287.414 195.117 298.343 192 310 192C313.402 192 316.742 192.265 320 192.777V225.594C316.854 224.559 313.492 224 310 224C292.327 224 278 238.327 278 256V320H246V256V192ZM102 192H0V224H56L0 288V320H102V288H42L102 224V192Z" fill="black"></path>
    <defs>
        <linearGradient id="paint0_linear_107_944" x1="455.759" y1="-0.328256" x2="648.291" y2="192.107" gradientUnits="userSpaceOnUse">
            <stop offset="0.078125" stop-color="#F68712"></stop>
            <stop offset="0.239583" stop-color="#F2EF1D"></stop>
            <stop offset="0.494792" stop-color="#F68712"></stop>
            <stop offset="0.854167" stop-color="#BF1B2C"></stop>
            <stop offset="1" stop-color="#BF1B2C"></stop>
        </linearGradient>
    </defs>
</svg>
